<?xml version="1.0" standalone="no"?>
<!DOCTYPE svg PUBLIC "-//W3C//DTD SVG 20010904//EN"
 "http://www.w3.org/TR/2001/REC-SVG-20010904/DTD/svg10.dtd">
<svg version="1.0" xmlns="http://www.w3.org/2000/svg"
 width="300.000000pt" height="267.000000pt" viewBox="0 0 300.000000 267.000000"
 preserveAspectRatio="xMidYMid meet">
<metadata>
Created by potrace 1.10, written by Peter Selinger 2001-2011
</metadata>
<g transform="translate(0.000000,267.000000) scale(0.100000,-0.100000)"
fill="#000000" stroke="none">
<path d="M1301 2640 c-98 -24 -241 -96 -321 -163 -126 -104 -228 -267 -270
-431 -27 -108 -28 -283 0 -392 41 -165 146 -331 273 -434 148 -120 326 -183
517 -183 191 0 369 63 517 183 127 103 232 269 273 434 27 109 27 283 0 392
-43 170 -158 348 -292 449 -81 61 -223 129 -315 149 -98 22 -285 20 -382 -4z
m375 -60 c266 -68 463 -256 546 -520 19 -63 23 -96 23 -210 0 -114 -4 -147
-23 -210 -102 -327 -387 -540 -722 -540 -335 0 -620 213 -722 540 -33 109 -33
311 0 420 82 262 279 451 542 519 103 27 251 27 356 1z"/>
<path d="M1284 2305 c-31 -17 -39 -28 -53 -72 -16 -50 -9 -89 25 -124 l24 -25
-26 -14 c-49 -27 -64 -76 -64 -210 0 -113 1 -120 20 -120 19 0 20 -7 20 -180
l0 -180 48 0 47 0 0 142 c0 104 3 142 13 145 9 4 12 -29 12 -141 l0 -146 50 0
50 0 0 180 c0 165 1 180 18 180 15 0 17 11 14 122 -3 136 -11 167 -53 202 -28
23 -28 24 -9 41 46 42 41 141 -9 184 -27 24 -24 23 -72 25 -20 1 -44 -3 -55
-9z m96 -40 c40 -21 57 -73 35 -114 -30 -59 -89 -68 -136 -22 -33 33 -38 74
-13 109 28 41 69 50 114 27z m4 -211 c13 -5 16 -22 16 -85 0 -66 -3 -82 -20
-99 -25 -25 -51 -26 -78 -2 -28 24 -38 167 -13 182 18 11 72 13 95 4z m-102
-201 c15 -16 33 -23 58 -23 56 0 74 26 80 119 5 70 7 74 18 48 7 -17 12 -75
12 -143 l0 -114 -110 0 -110 0 0 121 c0 78 4 128 13 142 10 19 12 13 15 -53 2
-60 7 -79 24 -97z m28 -161 c0 -4 -6 -14 -12 -20 -8 -8 -15 -55 -19 -120 l-5
-107 -2 121 c-1 66 1 124 5 127 9 10 33 9 33 -1z m86 -123 c0 -115 0 -116 -3
-19 -3 74 -8 109 -18 120 -15 17 -10 33 9 27 7 -2 11 -50 12 -128z"/>
<path d="M1313 2156 c2 -6 14 -11 27 -11 13 0 25 5 27 11 2 6 -10 11 -27 11
-17 0 -29 -5 -27 -11z"/>
<path d="M1290 2005 c0 -34 1 -34 26 -23 20 9 30 9 45 0 26 -16 26 -16 21 22
-4 31 -6 34 -22 23 -14 -8 -25 -8 -44 1 -25 11 -26 11 -26 -23z"/>
<path d="M1602 2273 c-39 -19 -65 -65 -60 -104 3 -19 -2 -35 -14 -46 -22 -20
-24 -59 -2 -67 20 -8 47 13 40 31 -7 18 4 16 33 -6 l23 -18 -30 -12 c-80 -33
-94 -166 -24 -221 22 -18 24 -23 12 -30 -8 -6 -18 -10 -22 -10 -4 0 -19 -17
-33 -37 -24 -37 -25 -42 -25 -205 0 -165 0 -168 21 -168 12 0 28 8 35 18 13
16 15 16 28 0 7 -10 19 -18 26 -18 7 0 19 8 26 18 13 16 15 16 28 0 17 -22 33
-23 54 -2 14 15 17 15 27 0 7 -9 24 -16 39 -16 l26 0 0 154 c0 85 -5 167 -11
183 -12 34 -58 83 -76 83 -19 0 -16 18 5 24 51 17 71 139 30 191 -12 15 -34
33 -49 39 l-27 12 29 16 c28 16 29 16 29 -1 0 -24 30 -36 47 -18 11 11 12 19
2 40 -7 15 -16 27 -22 27 -5 0 -6 11 -3 25 9 36 -18 91 -56 115 -40 24 -62 25
-106 3z m72 -68 c11 -8 28 -15 38 -15 12 0 18 -7 18 -22 -1 -65 -90 -98 -133
-50 -27 30 -23 49 13 75 42 30 40 30 64 12z m26 -180 c16 -8 34 -24 40 -34 15
-29 12 -94 -5 -117 -14 -19 -14 -19 -15 0 0 27 -39 66 -65 66 -36 0 -65 -28
-65 -63 -1 -30 -1 -31 -15 -13 -9 12 -15 42 -15 72 0 46 4 55 31 78 35 30 67
33 109 11z m-22 -127 c28 -28 1 -75 -37 -63 -25 8 -34 31 -21 56 12 21 40 25
58 7z m58 -152 l34 -34 0 -138 0 -139 -121 0 -120 0 3 138 3 139 37 34 c32 28
45 34 84 34 39 0 51 -5 80 -34z"/>
<path d="M1625 2130 c3 -5 17 -10 31 -10 13 0 24 5 24 10 0 6 -14 10 -31 10
-17 0 -28 -4 -24 -10z"/>
<path d="M770 685 c0 -21 47 -42 62 -27 6 6 8 18 5 26 -8 21 -67 22 -67 1z"/>
<path d="M455 671 c-3 -5 2 -114 10 -243 8 -128 15 -261 15 -295 0 -68 17 -96
54 -91 19 3 22 11 27 78 7 82 33 153 68 184 20 19 23 19 39 2 14 -14 17 -38
18 -134 2 -116 2 -117 25 -117 l24 0 0 142 c0 128 -2 144 -21 170 -39 53 -94
36 -141 -44 -14 -24 -27 -42 -30 -40 -2 3 -8 86 -13 186 -5 113 -13 188 -21
197 -13 16 -45 19 -54 5z"/>
<path d="M996 673 c-3 -4 -4 -75 0 -158 l7 -152 -39 -19 c-45 -22 -55 -48 -25
-64 15 -8 27 -8 42 0 11 7 22 10 24 8 2 -2 8 -52 14 -112 12 -115 21 -139 55
-134 23 3 23 1 11 183 l-7 101 93 34 c73 27 94 39 94 54 0 40 -29 42 -111 8
-43 -18 -78 -31 -80 -29 -1 1 -6 58 -10 127 -3 69 -11 133 -16 143 -9 17 -39
23 -52 10z m67 -311 c3 -4 -3 -18 -14 -30 -25 -31 -44 -19 -23 14 17 24 29 30
37 16z"/>
<path d="M1740 656 c0 -3 -13 -112 -30 -243 -16 -130 -30 -267 -30 -305 0 -66
1 -68 25 -68 14 0 25 3 25 8 5 96 10 128 25 137 9 6 42 27 73 47 31 21 60 38
63 38 4 0 19 -29 34 -64 29 -68 54 -86 80 -60 13 13 10 24 -20 84 -19 38 -35
72 -35 75 0 2 21 16 48 29 61 31 90 62 74 78 -9 9 -27 5 -76 -19 l-64 -32 -37
108 c-54 157 -72 185 -118 189 -20 2 -37 1 -37 -2z m94 -219 c21 -60 36 -109
34 -111 -1 -1 -30 -19 -62 -40 l-59 -38 7 68 c15 149 29 245 36 237 4 -4 24
-57 44 -116z"/>
<path d="M345 641 c-8 -14 -45 -279 -45 -328 0 -76 -16 -46 -46 90 l-30 132
-30 0 c-29 0 -29 -1 -48 -98 -11 -54 -22 -94 -26 -90 -4 4 -15 42 -25 83 -10
41 -22 81 -28 88 -13 17 -57 15 -57 -2 0 -8 19 -84 41 -168 23 -84 46 -170 52
-191 9 -37 42 -58 65 -43 6 3 13 53 17 111 4 58 10 103 13 100 3 -3 29 -67 58
-143 39 -104 56 -138 71 -140 17 -3 19 5 21 75 5 133 31 380 53 499 4 24 -3
34 -25 34 -14 0 -27 -4 -31 -9z m-130 -253 c6 -32 5 -38 -11 -38 -28 0 -54
-30 -55 -64 0 -17 -4 -40 -8 -51 -6 -16 -11 -10 -24 30 -21 59 -21 55 3 55 24
0 45 31 60 90 13 49 23 43 35 -22z m95 -168 c0 -16 -4 -30 -9 -30 -14 0 -21
44 -8 52 17 11 17 11 17 -22z"/>
<path d="M2896 519 c-73 -21 -142 -100 -171 -199 -8 -30 -18 -94 -22 -142 -6
-85 -5 -88 18 -96 13 -5 32 -7 42 -4 23 6 70 68 105 140 14 28 29 52 33 52 3
0 9 -43 13 -96 8 -111 17 -134 52 -134 l26 0 -7 183 c-10 275 -22 315 -89 296z
m36 -94 c10 -57 10 -145 -1 -145 -24 0 -31 28 -19 79 10 46 10 56 -6 82 -18
30 -18 31 0 27 13 -2 21 -16 26 -43z m-67 -82 c-16 -53 -69 -143 -85 -143 -8
0 13 110 28 151 6 14 23 40 39 59 26 32 28 33 31 12 2 -12 -4 -48 -13 -79z
m-87 -165 c7 -7 8 -17 1 -30 -14 -26 -39 -23 -39 5 0 36 16 47 38 25z"/>
<path d="M2550 421 l-70 -70 0 42 c0 24 -5 48 -12 55 -16 16 -58 16 -58 0 0
-66 34 -386 43 -396 5 -7 20 -12 31 -10 20 3 21 9 21 103 0 91 2 104 27 147
15 25 56 71 90 102 52 47 61 60 52 74 -23 36 -51 26 -124 -47z m-64 -106 c8
-21 -6 -41 -17 -24 -12 19 -11 39 1 39 6 0 13 -7 16 -15z"/>
<path d="M780 448 c0 -69 43 -394 53 -400 6 -4 21 -7 32 -6 23 3 23 1 6 188
-22 226 -21 225 -58 228 -22 2 -33 -1 -33 -10z"/>
<path d="M2277 338 c-7 -136 -41 -228 -84 -228 -31 0 -44 121 -22 205 23 88
23 94 -5 106 -22 10 -29 9 -46 -6 -18 -16 -20 -31 -20 -147 0 -136 9 -177 48
-211 13 -12 32 -17 54 -15 27 2 36 10 52 43 l20 40 10 -55 c10 -50 13 -55 40
-58 l29 -4 -7 204 c-4 115 -12 208 -18 215 -6 7 -18 13 -28 13 -15 0 -18 -14
-23 -102z"/>
<path d="M1391 404 c-11 -14 -29 -54 -41 -88 -14 -44 -27 -65 -40 -69 -20 -5
-28 -37 -10 -37 6 0 10 -28 10 -65 0 -52 4 -69 20 -85 42 -42 88 -21 223 104
86 80 97 94 95 121 -4 39 -39 46 -65 13 -31 -40 -195 -198 -202 -194 -3 2 -5
25 -3 50 4 44 8 50 73 103 38 31 71 65 74 75 8 22 -8 51 -41 77 -36 28 -68 26
-93 -5z m79 -47 c0 -7 -13 -21 -30 -30 -35 -21 -38 -16 -9 24 20 28 39 31 39
6z"/>
</g>
</svg>
